<?xml version="1.0" encoding="utf-8"?>
<svg xmlns="http://www.w3.org/2000/svg" viewBox="0 0 500 500" xmlns:bx="https://boxy-svg.com" width="500px" height="500px"><defs><bx:export><bx:file format="svg"/></bx:export></defs><path d="M 227.74 137.39 L 17.613 137.39 C 7.847 137.39 -0.1 130.187 -0.1 121.321 L -0.1 16.291 C -0.1 7.425 7.847 0.221 17.613 0.221 L 227.728 0.221 C 237.494 0.221 245.441 7.425 245.441 16.291 L 245.441 121.321 C 245.453 130.187 237.506 137.39 227.74 137.39 Z M 58.936 105.25 L 58.936 63.452 L 82.545 90.239 L 106.155 63.452 L 106.155 105.25 L 129.765 105.25 L 129.765 32.361 L 106.155 32.361 L 82.545 59.159 L 58.936 32.361 L 35.327 32.361 L 35.327 105.239 L 58.936 105.239 L 58.936 105.25 Z M 217.115 68.806 L 193.506 68.806 L 193.506 32.361 L 169.884 32.361 L 169.884 68.806 L 146.274 68.806 L 181.7 106.321 L 217.115 68.806 Z" style="fill: rgb(133, 135, 141);"/><path d="M 459.045 49.401 L 16.371 235.359 C -1.443 244.017 -7.47 261.361 12.066 270.77 L 125.631 310.087 L 400.216 125.226 C 415.21 113.621 430.557 116.716 417.35 129.482 L 181.519 362.089 L 174.111 460.528 C 180.972 475.726 193.534 475.797 201.548 468.244 L 266.796 400.99 L 378.54 492.143 C 404.494 508.881 418.616 498.079 424.202 467.4 L 497.495 89.335 C 505.105 51.573 492.128 34.933 459.045 49.401 Z" style="fill: rgb(133, 135, 141);"/></svg>